<?xml version="1.0" encoding="utf-8" ?>
<svg xmlns="http://www.w3.org/2000/svg" xmlns:xlink="http://www.w3.org/1999/xlink" width="1024" height="1024">
	<path fill="white" d="M0 0L1024 0L1024 1024L0 1024L0 0Z"/>
	<path fill="#5C6CCE" d="M358.793 376.827C363.411 381.554 367.939 386.426 372.936 390.757L358.893 405.146C354.715 402.661 348.144 394.596 344.506 390.842C349.073 386.059 353.679 381.026 358.793 376.827Z"/>
	<path fill="#8544A0" d="M722.513 66.9051Q730.993 73.8199 739.155 81.1075C735.444 87.0915 730.527 92.6106 726.002 97.9992C720.582 93.0796 714.736 88.5385 709.087 83.8791L722.513 66.9051Z"/>
	<path fill="#5C6CCE" d="M86.6319 373.463C91.8894 378.425 96.8975 383.69 101.982 388.83Q94.2714 396.522 86.4259 404.076C80.9873 399.797 75.9602 393.907 70.9981 389.036C75.9533 383.617 81.3606 378.57 86.6319 373.463Z"/>
	<path fill="#5C6CCE" d="M282.692 92.0639C288.08 96.2981 293.527 102.743 298.722 107.576C293.647 112.554 288.864 117.796 283.657 122.644C279.842 121.18 271.166 111.258 267.506 107.85C272.304 102.357 277.913 97.6057 282.692 92.0639Z"/>
	<path fill="#8544A0" d="M710.231 904.364C713.37 905.873 723.398 917.166 726.68 920.392Q718.69 927.919 710.887 935.64C708.678 935.448 697.191 922.057 694.6 919.485C700.05 914.693 704.819 909.204 710.231 904.364Z"/>
	<path fill="#5C6CCE" d="M923.945 728.856C929.342 732.112 935.646 739.505 940.203 744.06C935.681 749.981 929.81 755.331 924.448 760.51C918.772 755.691 913.467 750.197 908.047 745.076Q915.84 736.813 923.945 728.856Z"/>
	<path fill="#A8E5B5" d="M510.311 313.657C511.248 313.456 511.601 313.464 512.515 313.593C514.065 316.792 515.931 331.235 516.807 335.768C509.879 337.6 502.662 338.759 495.66 340.373L494.519 340.085C492.676 337.38 490.554 322.049 489.278 317.209C496.268 316.553 503.391 314.896 510.311 313.657Z"/>
	<path fill="#8544A0" d="M221.616 723.546L238.476 739.759C233.182 745.523 227.325 750.795 221.982 756.542C216.423 751.077 210.569 745.705 205.582 739.709C211.045 734.398 216.452 729.156 221.616 723.546Z"/>
	<path fill="#F9E281" d="M704.526 213.633L705.696 213.529C707.158 215.065 710.525 232.737 711.239 235.837C704.206 237.619 697.111 239.205 690.053 240.886L688.786 240.983C686.784 239.611 683.902 221.872 683.11 218.185C690.109 216.312 697.425 215.113 704.526 213.633Z"/>
	<path fill="#A8E5B5" d="M904.62 281.108L905.326 281.325C907.687 288.535 908.047 296.941 909.801 304.442C902.199 306.632 894.318 307.86 886.627 309.736C884.666 306.815 882.102 290.733 881.052 286.148C888.795 284.159 896.802 282.844 904.62 281.108Z"/>
	<path fill="#F9E281" d="M292.987 916.258Q305.084 919.021 317.242 921.501Q314.807 933.535 312.206 945.535Q299.912 942.472 287.576 939.579C289.6 931.874 291.229 924.028 292.987 916.258Z"/>
	<path fill="#F9E281" d="M77.5045 528.195C79.5033 530.927 82.7102 548.136 83.7693 552.641Q71.8759 555.071 60.0682 557.889C57.1801 553.463 55.3235 539.076 54.156 533.159C61.9716 531.594 69.7433 530.024 77.5045 528.195Z"/>
	<path fill="#8544A0" d="M124.311 244.081L124.99 244.134C126.886 246.975 130.05 265.346 130.854 269.802C122.867 271.849 114.744 273.326 106.756 275.435L105.818 275.479C104.046 273.817 100.326 252.801 99.6438 249.305Q111.997 246.785 124.311 244.081Z"/>
	<path fill="#AB83CA" d="M476.375 661.905C484.685 664.885 493.099 667.62 501.475 670.41C498.673 678.81 495.965 687.259 492.868 695.556C484.471 692.692 475.966 689.99 467.738 686.666C470.099 678.457 472.661 669.605 476.375 661.905Z"/>
	<path fill="#AB83CA" d="M811.276 553.921L811.775 554.02C813.983 556.435 819.912 575.015 821.584 579.466C813.563 583.126 804.884 585.563 796.599 588.612L795.587 588.818C793.031 586.303 787.687 567.754 786.094 563.124Q798.736 558.662 811.276 553.921Z"/>
	<path fill="#A8E5B5" d="M643.252 734.727C646.108 736.858 649.013 738.85 652.005 740.787C647.091 747.544 642.921 754.891 638.336 761.88C628.317 777.151 618.202 792.317 608.393 807.731C606.33 807.882 601.877 803.609 600.037 802.193C605.413 792.349 611.941 783.111 618.038 773.704L643.252 734.727Z"/>
	<path fill="#A8E5B5" d="M392.947 521.476C393.556 521.401 394.213 521.345 394.824 521.428C396.458 521.649 398.328 523.163 399.077 524.625C399.692 525.825 399.858 526.937 399.365 528.221C398.923 529.372 398.048 530.222 397.013 530.844C391.715 534.023 381.589 538.024 375.517 540.859C356.829 549.585 337.807 558.38 318.773 566.311C318.161 566.242 317.549 566.17 316.945 566.049C315.326 565.726 313.584 564.603 312.784 563.115C312.165 561.963 311.998 560.963 312.447 559.721C312.811 558.713 313.764 557.662 314.659 557.117C323.338 551.837 338.157 546.411 348.041 541.987C363.071 535.259 377.709 527.767 392.947 521.476Z"/>
	<path fill="#A8E5B5" d="M445.701 528.533C447.622 529.011 449.279 529.497 450.325 531.353C450.966 532.491 451.217 533.578 450.733 534.839C450.163 536.324 449.023 537.181 447.712 537.967C439.249 543.045 426.01 547.971 416.728 552.204C399.612 560.008 382.653 568.557 365.179 575.506Q364.081 575.195 363.064 574.679C361.609 573.948 360.443 572.255 360.037 570.683C359.73 569.494 359.809 568.456 360.486 567.406C362.299 564.596 440.164 530.156 445.701 528.533Z"/>
	<path fill="#A8E5B5" d="M660.941 662.319C663.648 664.607 666.431 666.448 669.446 668.292C648.455 699.606 627.169 730.643 606.689 762.306C603.734 761.117 600.646 758.484 597.992 756.701C609.087 738.63 621.311 720.957 633.136 703.344C642.342 689.632 651.23 675.687 660.941 662.319Z"/>
	<path fill="#D4AA57" d="M340.38 717.166C344.69 717.264 348.595 718.067 352.293 720.382Q352.716 720.647 353.125 720.933Q353.535 721.219 353.929 721.525Q354.323 721.831 354.702 722.156Q355.081 722.481 355.443 722.825Q355.805 723.169 356.149 723.53Q356.493 723.892 356.819 724.27Q357.145 724.648 357.451 725.042Q357.758 725.436 358.044 725.845Q358.33 726.254 358.596 726.677Q358.862 727.099 359.106 727.535Q359.35 727.97 359.572 728.417Q359.794 728.865 359.993 729.322Q360.193 729.78 360.369 730.247Q360.545 730.714 360.698 731.189Q360.851 731.664 360.98 732.147Q361.108 732.629 361.213 733.117C362.423 738.719 361.361 744.868 358.145 749.635C354.2 755.481 348.781 757.394 342.173 758.564C337.395 758.188 332.929 757.114 329.038 754.181Q328.632 753.875 328.241 753.55Q327.85 753.224 327.475 752.88Q327.101 752.536 326.744 752.174Q326.386 751.812 326.047 751.433Q325.708 751.054 325.388 750.659Q325.068 750.264 324.767 749.854Q324.466 749.444 324.186 749.019Q323.906 748.595 323.647 748.157Q323.388 747.719 323.15 747.27Q322.913 746.82 322.698 746.359Q322.482 745.898 322.29 745.428Q322.097 744.957 321.928 744.477Q321.759 743.998 321.613 743.511Q321.467 743.023 321.346 742.529Q321.224 742.036 321.126 741.536Q321.029 741.037 320.956 740.534C320.18 734.959 321.895 729.127 325.412 724.751C329.305 719.908 334.367 717.819 340.38 717.166Z"/>
	<path fill="white" d="M340.116 729.508C341.047 729.56 341.923 729.613 342.825 729.871C345.243 730.563 347.505 732.068 348.63 734.38C349.663 736.503 349.573 738.893 348.673 741.045C347.447 743.98 345.11 745.159 342.339 746.383C341.235 746.383 340.106 746.385 339.04 746.062C336.9 745.414 334.954 743.983 333.952 741.953C332.941 739.905 332.928 737.5 333.684 735.369C334.832 732.132 337.124 730.827 340.116 729.508Z"/>
	<path fill="#D4AA57" d="M411.031 49.1761C415.021 49.2206 418.698 50.1094 422.161 52.154Q422.624 52.4312 423.072 52.7317Q423.52 53.0323 423.953 53.3553Q424.385 53.6783 424.8 54.023Q425.215 54.3677 425.612 54.7331Q426.009 55.0986 426.387 55.4838Q426.765 55.8691 427.123 56.2732Q427.48 56.6772 427.817 57.099Q428.154 57.5209 428.468 57.9593Q428.783 58.3978 429.075 58.8517Q429.366 59.3057 429.635 59.7739Q429.903 60.2422 430.147 60.7236Q430.391 61.2049 430.609 61.6981Q430.828 62.1913 431.022 62.695Q431.216 63.1988 431.383 63.7117Q431.551 64.2247 431.692 64.7456Q431.833 65.2664 431.947 65.7938C433.182 71.4374 432.06 77.1749 428.898 82.0005C424.971 87.9918 419.45 90.0897 412.793 91.5933C407.57 90.9872 402.846 90.0591 398.503 86.82Q398.101 86.5226 397.715 86.2053Q397.329 85.8881 396.959 85.5519Q396.589 85.2157 396.236 84.8613Q395.883 84.507 395.549 84.1354Q395.215 83.7638 394.899 83.3758Q394.584 82.9879 394.289 82.5847Q393.993 82.1814 393.718 81.7639Q393.444 81.3463 393.19 80.9154Q392.936 80.4846 392.705 80.0416Q392.473 79.5986 392.264 79.1445Q392.055 78.6904 391.869 78.2264Q391.683 77.7624 391.521 77.2897Q391.358 76.8169 391.22 76.3366Q391.081 75.8563 390.967 75.3697Q390.852 74.883 390.763 74.3912Q390.673 73.8995 390.608 73.4038C389.831 67.707 391.105 61.5832 394.746 57.0441C398.906 51.8587 404.61 49.7588 411.031 49.1761Z"/>
	<path fill="white" d="M410.772 62.0962C411.999 62.1964 413.22 62.2988 414.363 62.79Q414.746 62.9566 415.109 63.1621Q415.472 63.3677 415.812 63.6098Q416.153 63.852 416.466 64.1282Q416.779 64.4044 417.061 64.7116Q417.344 65.0188 417.593 65.3537Q417.842 65.6887 418.055 66.0477Q418.268 66.4067 418.442 66.7859Q418.617 67.1651 418.751 67.5604C419.488 69.7565 419.19 72.2328 418.141 74.2774C416.705 77.0758 414.702 77.8736 411.828 78.7671C410.368 78.4844 408.854 78.2324 407.521 77.5417Q407.142 77.3459 406.785 77.1133Q406.428 76.8807 406.096 76.6136Q405.764 76.3464 405.46 76.0474Q405.157 75.7484 404.884 75.4206Q404.612 75.0927 404.374 74.7393Q404.136 74.3858 403.934 74.0104Q403.732 73.6349 403.569 73.2411Q403.406 72.8474 403.283 72.4393C402.654 70.356 403.027 68.0595 404.185 66.2316C405.764 63.7401 408.023 62.7926 410.772 62.0962Z"/>
	<path fill="#D4AA57" d="M940.156 601.105C944.884 600.841 949.345 601.65 953.501 604.033C958.216 606.737 961.493 611.109 962.882 616.354C964.357 621.924 963.71 628.161 960.761 633.149C957.171 639.223 951.812 641.674 945.261 643.288Q944.354 643.348 943.446 643.335Q942.537 643.322 941.633 643.235Q940.729 643.148 939.834 642.989Q938.94 642.829 938.061 642.597Q937.183 642.366 936.326 642.064Q935.469 641.762 934.639 641.392Q933.809 641.022 933.012 640.585Q932.215 640.149 931.456 639.65C926.538 636.484 922.816 631.555 921.69 625.762C920.605 620.185 921.842 614.114 925.212 609.518C928.94 604.435 934.129 602.159 940.156 601.105Z"/>
	<path fill="white" d="M939.992 614.51C941.385 614.435 942.851 614.31 944.227 614.602C946.428 615.068 948.39 616.627 949.539 618.538Q949.757 618.895 949.935 619.274Q950.113 619.653 950.25 620.048Q950.387 620.443 950.481 620.851Q950.575 621.259 950.625 621.675Q950.674 622.09 950.679 622.509Q950.684 622.927 950.645 623.344Q950.605 623.76 950.521 624.17Q950.437 624.58 950.31 624.979C949.353 627.919 947.504 629.333 944.848 630.698C943.443 630.806 941.944 630.986 940.56 630.652C938.376 630.125 936.432 628.598 935.283 626.683Q935.064 626.311 934.885 625.917Q934.706 625.524 934.568 625.114Q934.431 624.704 934.338 624.282Q934.244 623.86 934.195 623.431Q934.146 623.001 934.142 622.569Q934.138 622.137 934.179 621.707Q934.22 621.277 934.306 620.853Q934.391 620.429 934.521 620.017C935.411 617.093 937.393 615.831 939.992 614.51Z"/>
	<path fill="#208A40" d="M914.638 966.845C909.948 962.793 905.753 958.055 901.446 953.596L883.458 935.216L848.771 899.603C842.328 893.078 835.49 886.75 829.193 880.126C828.333 879.221 827.885 878.581 827.537 877.39C828.366 876.207 829.066 876.366 830.416 876.062C830.994 877.704 830.977 878.336 832.614 879.129C836.487 881.006 840.482 882.545 844.329 884.513C858.467 891.746 872.272 899.787 886.274 907.308C898.458 913.853 910.939 920.033 922.896 926.971C920.447 940.311 917.123 953.503 914.638 966.845Z"/>
	<path fill="#AB83CA" d="M351.943 217.168C359.503 226.794 363.507 238.362 362.078 250.672Q361.946 251.799 361.758 252.917Q361.57 254.036 361.327 255.144Q361.084 256.252 360.786 257.347Q360.488 258.442 360.136 259.52Q359.784 260.598 359.379 261.658Q358.974 262.718 358.517 263.756Q358.059 264.794 357.551 265.808Q357.043 266.822 356.485 267.81Q355.927 268.798 355.32 269.756Q354.714 270.715 354.06 271.643Q353.407 272.57 352.708 273.464Q352.01 274.358 351.268 275.216Q350.526 276.074 349.742 276.894Q348.958 277.714 348.134 278.494Q347.311 279.274 346.449 280.012Q345.588 280.75 344.691 281.445C335.353 288.633 322.47 291.928 310.82 290.3C303.056 289.215 295.759 285.954 289.481 281.298C302.959 266.505 317.627 252.674 331.767 238.5C338.6 231.65 346.036 224.85 351.943 217.168Z"/>
	<path fill="#A8E5B5" d="M917.824 82.6442C923.646 85.0318 929.301 87.6865 934.97 90.4128C929.531 103.754 924.932 117.554 919.115 130.71C913.002 127.279 906.98 124.164 900.356 121.796C896.48 130.368 893.318 139.373 889.938 148.155C883.375 145.478 877.497 141.841 870.752 139.425C867.33 147.952 863.996 156.507 860.355 164.944L842.353 157.107C838.278 166.529 834.809 176.146 831.456 185.845C828.467 185.762 818.264 180.091 815.015 178.551C820.43 163.878 825.111 148.574 831.401 134.281C837.659 137.466 844.35 139.674 850.593 142.933C854.087 134.773 856.58 125.295 860.845 117.584C867.224 120.777 873.552 123.641 880.343 125.87C883.49 117.25 885.98 108.383 889.002 99.7088Q898.794 104.405 908.762 108.714C912.247 100.276 914.874 91.2868 917.824 82.6442Z"/>
	<path fill="#AB83CA" d="M231.155 399.074C237.253 401.627 243.24 404.362 248.947 407.708C244.172 420.577 238.854 433.274 233.651 445.975C227.355 443.681 221.291 440.398 215.059 437.857Q210.47 449.467 206.04 461.138C199.711 458.81 193.511 455.59 187.369 452.781C183.999 460.2 181.101 467.869 178.058 475.428C171.845 472.893 166.021 469.416 159.552 467.544C156.296 474.705 153.328 482.026 150.336 489.303Q141.433 485.039 132.27 481.366Q140.207 462.876 147.872 444.271C153.504 447.079 159.2 449.59 165.007 452.013Q170.297 440.607 175.051 428.967C181.437 431.146 187.552 434.538 193.594 437.519C196.557 429.467 199.925 421.528 203.074 413.544C209.612 416.384 216.033 419.475 222.593 422.274Q226.618 410.579 231.155 399.074Z"/>
	<path fill="#8544A0" d="M911.714 520.511C899.966 515.054 886.988 506.665 875.6 500.017L818.673 467.211L785.256 447.952C781.43 445.744 776.025 443.598 772.797 440.697L773.337 440.057C778.295 442.223 793.353 444.46 799.989 446.013L871.982 463.494C887.157 467.124 903.473 470.115 918.253 474.962C919.253 475.29 920.072 475.758 920.896 476.41C916.972 490.784 914.599 505.879 911.714 520.511Z"/>
	<path fill="#208A40" d="M565.343 87.1605C565.644 88.4371 565.561 89.2466 565.201 90.516C561.758 102.65 556.298 114.708 551.762 126.516C540.397 156.101 528.119 185.424 517.4 215.25C499.761 212.026 481.408 210.127 463.573 208.248C468.514 203.3 472.955 197.487 477.476 192.134Q489.632 177.802 501.59 163.305C522.576 137.772 543.725 112.155 565.343 87.1605Z"/>
	<path fill="#8544A0" d="M289.481 281.298C287.793 280.025 286.255 278.53 284.762 277.036C276.119 268.391 271.351 257.225 271.357 244.973C271.364 232.984 276.602 221.421 285.052 213.008C293.171 204.925 305.602 200.286 317.002 200.401C331.68 200.549 341.976 206.998 351.943 217.168C346.036 224.85 338.6 231.65 331.767 238.5C317.627 252.674 302.959 266.505 289.481 281.298Z"/>
	<path fill="#5BB575" d="M830.416 876.062C845.814 873.379 861.105 869.169 876.404 865.865Q897.934 861.279 919.412 856.452C925.705 855.04 932.128 853.884 938.352 852.215Q930.423 889.552 922.896 926.971C910.939 920.033 898.458 913.853 886.274 907.308C872.272 899.787 858.467 891.746 844.329 884.513C840.482 882.545 836.487 881.006 832.614 879.129C830.977 878.336 830.994 877.704 830.416 876.062Z"/>
	<path fill="#208A40" d="M457.6 810.509C469.383 819.196 480.358 829.759 491.515 839.289L553.201 891.183C561.321 897.916 569.185 905.386 577.794 911.459C565.192 916.204 552.387 920.441 539.692 924.931C534.733 926.686 529.548 928.259 524.708 930.302C509.306 906.608 495.817 881.179 481.833 856.611Q473.452 841.939 465.326 827.124C462.849 822.629 459.777 817.934 457.871 813.176C457.485 812.214 457.483 811.519 457.6 810.509Z"/>
	<path fill="#208A40" d="M106.176 113.649Q135.794 93.3983 165.73 73.6181C171.885 100.34 178.821 126.943 185.404 153.567Q186.939 160.425 188.699 167.228C168.027 158.894 147.723 149.748 127.288 140.861C114.793 135.427 102.139 130.431 89.7438 124.749C95.1521 120.956 100.69 117.331 106.176 113.649Z"/>
	<path fill="#264096" d="M761.685 756.415C757.177 751.629 753.519 746.512 751.455 740.206C748.418 730.928 749.263 721.249 753.705 712.585C758.619 703.002 766.336 696.486 776.592 693.196C785.839 690.229 795.59 690.725 804.238 695.266C813.172 699.957 819.589 707.365 822.56 717.022C825.958 728.064 824.238 738.027 818.892 748.103C814.164 756.543 806.592 762.638 797.244 765.302C787.506 768.078 777.095 766.454 768.356 761.444C765.918 760.047 763.771 758.285 761.685 756.415Z"/>
	<path fill="#171F5F" d="M788.438 721.916C798.333 730.896 809.471 738.593 818.892 748.103C814.164 756.543 806.592 762.638 797.244 765.302C787.506 768.078 777.095 766.454 768.356 761.444C765.918 760.047 763.771 758.285 761.685 756.415C764.758 752.343 768.709 748.729 771.94 744.7C777.798 737.395 783.006 729.54 788.438 721.916Z"/>
	<path fill="#208A40" d="M732.718 311.595C742.652 310.737 751.44 312.175 759.793 317.939C768.415 323.889 773.981 333.167 775.836 343.418Q775.999 344.339 776.116 345.267Q776.233 346.195 776.304 347.128Q776.375 348.06 776.4 348.995Q776.425 349.93 776.404 350.866Q776.383 351.801 776.315 352.734Q776.248 353.667 776.134 354.595Q776.02 355.524 775.861 356.445Q775.702 357.367 775.497 358.28Q775.292 359.192 775.042 360.094Q774.793 360.995 774.499 361.883Q774.205 362.771 773.868 363.644Q773.53 364.516 773.15 365.371Q772.77 366.225 772.348 367.06Q771.926 367.895 771.463 368.708Q771 369.521 770.498 370.31Q769.996 371.099 769.455 371.862C763.327 380.646 754.416 384.991 744.118 386.886C735.119 388.043 726.112 386.544 718.357 381.669C709.828 376.309 703.625 366.952 701.395 357.182Q701.187 356.291 701.024 355.39Q700.86 354.489 700.741 353.582Q700.622 352.674 700.548 351.762Q700.474 350.85 700.445 349.935Q700.416 349.02 700.432 348.105Q700.448 347.19 700.509 346.276Q700.57 345.363 700.676 344.454Q700.782 343.545 700.933 342.642Q701.084 341.739 701.279 340.845Q701.474 339.95 701.713 339.067Q701.952 338.183 702.234 337.312Q702.516 336.442 702.84 335.586Q703.165 334.73 703.532 333.891Q703.898 333.052 704.305 332.233Q704.713 331.413 705.16 330.614Q705.607 329.816 706.093 329.04C712.201 319.32 721.734 314.02 732.718 311.595Z"/>
	<path fill="#AB83CA" d="M773.337 440.057L849.635 420.663C878.855 412.963 907.981 404.711 937.348 397.598C933.66 414.781 930.401 432.064 926.829 449.274C924.948 458.336 922.562 467.31 920.896 476.41C920.072 475.758 919.253 475.29 918.253 474.962C903.473 470.115 887.157 467.124 871.982 463.494L799.989 446.013C793.353 444.46 778.295 442.223 773.337 440.057Z"/>
	<path fill="#5BB575" d="M565.343 87.1605L565.931 86.5183C568.276 88.9217 575.186 105.445 577.35 109.915L634.81 230.468L517.4 215.25C528.119 185.424 540.397 156.101 551.762 126.516C556.298 114.708 561.758 102.65 565.201 90.516C565.561 89.2466 565.644 88.4371 565.343 87.1605Z"/>
	<path fill="#5BB575" d="M406.963 971.469C417.048 940.019 426.161 908.146 435.72 876.524C442.428 854.329 449.667 832.308 456.014 810.003L456.698 809.629L457.6 810.509C457.483 811.519 457.485 812.214 457.871 813.176C459.777 817.934 462.849 822.629 465.326 827.124Q473.452 841.939 481.833 856.611C495.817 881.179 509.306 906.608 524.708 930.302C485.244 943.327 446.574 958.88 406.963 971.469Z"/>
	<path fill="#208A40" d="M154.847 569.385C163.447 575.78 172.429 581.645 181.187 587.82L235.115 625.948C246.344 633.866 258.114 641.481 268.74 650.181C256.948 654.034 244.709 656.899 232.749 660.216L166.724 678.587C155.557 681.273 144.453 684.892 133.417 688.092Q105.225 696.478 76.7256 703.754Q115.179 636.216 154.847 569.385Z"/>
	<path fill="#264096" d="M87.629 823.099L162.682 788.255C177.202 821.768 194.342 854.146 209.122 887.53L134.051 922.659Q120.614 929.19 106.974 935.283C99.4041 920.957 93.0735 905.632 86.3304 890.889C77.899 872.454 69.0217 854.127 60.9081 835.558L87.629 823.099Z"/>
	<path fill="#264096" d="M536.592 457.803C566.538 445.418 596.629 432.803 626.122 419.381C637.422 443.962 647.996 468.925 659.023 493.638L672.733 524.587C674.812 529.308 677.306 534.083 679.017 538.935Q634.019 559.208 588.391 578.024C578.384 582.77 567.983 586.793 557.739 590.998L518.334 500.62C514.125 490.893 509.517 481.314 505.578 471.475Q521.15 464.786 536.592 457.803Z"/>
</svg>
