<?xml version="1.0" encoding="utf-8" ?>
<svg xmlns="http://www.w3.org/2000/svg" xmlns:xlink="http://www.w3.org/1999/xlink" width="160" height="160">
	<path fill="#FDFDFE" transform="matrix(0.15625 0 0 -0.15625 0 160)" d="M0 0L1024 0L1024 1024L0 1024L0 0Z"/>
	<defs>
		<linearGradient id="gradient_0" gradientUnits="userSpaceOnUse" x1="-167.87589" y1="645.02521" x2="930.07837" y2="-49.012039">
			<stop offset="0" stop-color="#000005"/>
			<stop offset="1" stop-color="#060929"/>
		</linearGradient>
	</defs>
	<path fill="url(#gradient_0)" transform="matrix(0.15625 0 0 -0.15625 0 160)" d="M43.0711 980.46Q42.9671 978.892 42.9009 977.322C42.4234 965.363 42.7957 953.244 42.7867 941.269L42.8277 871.77L42.8738 675.19L42.9184 49.7233C42.9216 44.5447 41.6257 36.2278 45.5553 32.2679C49.2526 28.5423 56.7969 29.4483 61.7096 29.4493L667.876 29.5019L873.606 29.509C908.555 29.5188 943.532 29.1876 978.478 29.5893C980.028 30.4193 981.488 31.3156 982.681 32.6323C987.13 37.5463 985.095 58.0607 984.994 65.253C983.592 57.2275 985.085 49.0492 983.884 41.8191C983.631 40.2973 983.014 38.867 981.899 37.7808C978.125 34.1075 969.405 35.4278 964.523 35.5614L112.015 35.4456L71.5967 35.4843C66.3378 35.4959 60.5739 34.8769 55.3839 35.416C53.6265 35.5986 51.3073 36.0797 50.1142 37.5009C48.9612 38.8743 48.8608 41.1625 48.8734 42.8862L49.3101 624.902L49.0427 839.24L48.9985 907.501C48.9778 918.532 48.3255 929.878 48.8966 940.867C48.4192 949.144 48.4979 957.485 48.4054 965.775C48.352 970.556 47.8036 976.133 48.6373 980.845C48.8266 981.915 49.2328 982.957 49.9725 983.767C50.8975 984.781 52.004 985.663 53.0765 986.514C51.9268 986.481 50.7128 986.483 49.5866 986.218C46.455 985.482 44.7719 982.946 43.0711 980.46Z"/>
	<path fill="#653E96" transform="matrix(0.15625 0 0 -0.15625 0 160)" d="M48.8966 940.867C48.3255 929.878 48.9778 918.532 48.9985 907.501L49.0427 839.24L49.3101 624.902L48.8734 42.8862C48.8608 41.1625 48.9612 38.8743 50.1142 37.5009C51.3073 36.0797 53.6265 35.5986 55.3839 35.416C60.5739 34.8769 66.3378 35.4959 71.5967 35.4843L112.015 35.4456L964.523 35.5614C965.101 37.779 964.397 41.1261 963.983 43.3956Q916.752 42.9411 869.52 43.1085L697.457 43.1992L395.051 43.0025L156.038 43.0821Q123.418 43.307 90.7968 43.1686C79.427 43.1843 67.826 42.7871 56.4758 43.4331L56.6618 649.123L56.6248 853.329L56.6773 915.141C56.6705 927.732 56.352 940.416 56.839 952.994C54.0432 953.354 51.7945 954.174 49.205 955.229C48.9942 950.444 49.1647 945.658 48.8966 940.867Z"/>
	<path fill="#485088" transform="matrix(0.15625 0 0 -0.15625 0 160)" d="M964.523 35.5614C969.405 35.4278 978.125 34.1075 981.899 37.7808C983.014 38.867 983.631 40.2973 983.884 41.8191C985.085 49.0492 983.592 57.2275 984.994 65.253C986.001 78.7798 985.189 92.9544 985.189 106.547L985.349 181.73L985.363 418.521L985.351 783.814L985.063 926.02C984.965 942.371 985.529 958.82 985.098 975.154C985.025 977.933 984.794 980.56 982.991 982.796C981.44 984.719 979.496 986.093 976.998 986.345C969.3 987.122 960.824 986.451 953.063 986.45L902.067 986.443L735.979 986.469L278.631 986.446L134.051 986.378C107.126 986.338 79.9767 985.529 53.0765 986.514C52.004 985.663 50.8975 984.781 49.9725 983.767C49.2328 982.957 48.8266 981.915 48.6373 980.845C47.8036 976.133 48.352 970.556 48.4054 965.775C48.4979 957.485 48.4192 949.144 48.8966 940.867C49.1647 945.658 48.9942 950.444 49.205 955.229C51.7945 954.174 54.0432 953.354 56.839 952.994L963.636 953L963.787 766.431L963.972 292.008L963.923 132.456C963.92 102.775 963.617 73.0719 963.983 43.3956C964.397 41.1261 965.101 37.779 964.523 35.5614Z"/>
	<path fill="#FDFDFE" transform="matrix(0.15625 0 0 -0.15625 0 160)" d="M56.4758 43.4331C67.826 42.7871 79.427 43.1843 90.7968 43.1686Q123.418 43.3068 156.038 43.0821L395.051 43.0025L697.457 43.1992L869.52 43.1085Q916.752 42.9411 963.983 43.3956C963.617 73.0719 963.92 102.775 963.923 132.456L963.972 292.008L963.787 766.431L963.636 953L56.839 952.994C56.352 940.416 56.6705 927.732 56.6773 915.141L56.6248 853.329L56.6618 649.123L56.4758 43.4331Z"/>
	<path fill="#653E96" transform="matrix(0.15625 0 0 -0.15625 0 160)" d="M496.625 112.713C496.927 112.691 497.229 112.663 497.531 112.647C509.414 112.015 521.469 112.647 533.339 113.311Q537.404 113.555 541.463 113.885Q545.522 114.215 549.573 114.631Q553.625 115.047 557.666 115.548Q561.708 116.05 565.738 116.636Q569.768 117.223 573.784 117.894Q577.801 118.566 581.803 119.322Q585.804 120.078 589.789 120.919Q593.774 121.759 597.74 122.684Q601.706 123.608 605.652 124.617Q609.598 125.625 613.521 126.716Q617.445 127.807 621.344 128.981Q625.244 130.155 629.118 131.411Q632.992 132.667 636.838 134.005Q640.685 135.342 644.502 136.761Q648.32 138.179 652.106 139.678Q655.893 141.177 659.647 142.755Q663.401 144.334 667.121 145.991Q670.841 147.649 674.525 149.385Q678.209 151.12 681.856 152.933Q685.502 154.746 689.11 156.636Q692.717 158.526 696.284 160.491Q699.851 162.457 703.375 164.497Q706.9 166.538 710.38 168.652Q713.861 170.767 717.296 172.954Q720.731 175.142 724.119 177.401Q727.507 179.661 730.847 181.991Q734.187 184.322 737.476 186.722Q740.766 189.123 744.004 191.593Q747.242 194.062 750.428 196.6Q753.613 199.137 756.744 201.741Q759.875 204.345 762.951 207.015Q766.026 209.685 769.044 212.419Q772.645 215.622 776.165 218.913Q779.685 222.204 783.123 225.581Q786.561 228.958 789.915 232.419Q793.268 235.88 796.536 239.423Q799.802 242.966 802.981 246.588Q806.16 250.211 809.248 253.91Q812.336 257.61 815.331 261.385Q818.327 265.16 821.229 269.008Q824.13 272.856 826.936 276.774Q829.741 280.692 832.449 284.679Q835.157 288.665 837.766 292.717Q840.375 296.769 842.883 300.885Q845.39 305 847.796 309.176Q850.201 313.352 852.503 317.586Q854.804 321.82 857 326.11Q859.196 330.399 861.286 334.742Q863.375 339.085 865.357 343.478Q867.339 347.87 869.211 352.311Q871.084 356.752 872.846 361.237Q874.608 365.722 876.259 370.25Q877.91 374.778 879.448 379.345Q880.987 383.912 882.412 388.515Q883.838 393.119 885.149 397.756Q886.46 402.394 887.656 407.062Q888.852 411.73 889.932 416.427Q891.013 421.123 891.977 425.845Q892.941 430.567 893.788 435.311Q894.636 440.055 895.365 444.819Q896.095 449.582 896.707 454.363Q897.319 459.143 897.812 463.937Q898.306 468.73 898.681 473.535Q899.056 478.34 899.312 483.152Q899.551 487.946 899.674 492.745Q899.796 497.544 899.8 502.344Q899.805 507.144 899.692 511.943Q899.58 516.742 899.35 521.537Q899.12 526.332 898.773 531.119Q898.425 535.907 897.961 540.685Q897.497 545.462 896.916 550.227Q896.335 554.992 895.638 559.741Q894.941 564.491 894.128 569.222Q893.315 573.953 892.386 578.662Q891.457 583.372 890.414 588.057Q889.37 592.743 888.213 597.401Q887.055 602.06 885.784 606.688Q884.512 611.317 883.128 615.914Q881.744 620.51 880.248 625.071Q878.752 629.632 877.144 634.155Q875.537 638.678 873.82 643.161Q872.102 647.643 870.276 652.083Q868.449 656.522 866.515 660.915Q864.58 665.308 862.539 669.653Q860.498 673.997 858.351 678.291Q856.204 682.584 853.952 686.823Q851.701 691.063 849.347 695.246Q846.992 699.429 844.536 703.554Q842.081 707.678 839.525 711.741Q836.969 715.805 834.314 719.804Q831.659 723.803 828.908 727.737Q826.156 731.67 823.309 735.535Q820.462 739.399 817.521 743.193Q814.58 746.987 811.548 750.708Q808.515 754.429 805.393 758.075Q802.27 761.721 799.059 765.289Q796.202 768.479 793.274 771.605Q790.346 774.731 787.35 777.791Q784.353 780.851 781.29 783.844Q778.226 786.836 775.096 789.76Q771.967 792.684 768.773 795.537Q765.579 798.391 762.323 801.173Q759.067 803.955 755.749 806.663Q752.432 809.372 749.055 812.006Q745.678 814.641 742.244 817.199Q738.809 819.758 735.319 822.24Q731.828 824.721 728.283 827.125Q724.738 829.528 721.141 831.852Q717.544 834.176 713.895 836.42Q710.247 838.663 706.55 840.825Q702.853 842.987 699.109 845.066Q695.364 847.145 691.575 849.141Q687.785 851.136 683.952 853.047Q680.119 854.957 676.245 856.782Q672.37 858.607 668.456 860.346Q664.542 862.084 660.59 863.735Q656.638 865.386 652.651 866.949Q648.663 868.511 644.642 869.985Q640.621 871.459 636.568 872.843Q632.515 874.227 628.432 875.52Q624.349 876.814 620.238 878.016Q616.128 879.219 611.992 880.329Q607.855 881.44 603.695 882.459Q599.536 883.477 595.354 884.403Q591.172 885.329 586.971 886.161Q582.77 886.994 578.552 887.733Q574.333 888.472 570.099 889.117Q565.865 889.762 561.618 890.313C550.342 891.774 538.974 892.376 527.624 892.943Q522.996 893.164 518.364 893.273Q513.731 893.382 509.098 893.378Q504.465 893.374 499.833 893.258Q495.201 893.142 490.573 892.914Q485.945 892.686 481.324 892.345Q476.703 892.005 472.092 891.552Q467.48 891.1 462.881 890.536Q458.282 889.972 453.698 889.296Q449.114 888.621 444.548 887.834Q439.982 887.048 435.436 886.151Q430.89 885.254 426.368 884.247Q421.845 883.24 417.348 882.124Q412.851 881.007 408.383 879.782Q403.914 878.557 399.476 877.224Q395.039 875.891 390.635 874.451Q386.231 873.01 381.863 871.464Q377.496 869.917 373.167 868.265Q368.838 866.613 364.55 864.856Q360.263 863.099 356.019 861.239Q351.776 859.379 347.578 857.416Q343.381 855.454 339.232 853.39Q335.084 851.326 330.987 849.163Q326.89 846.999 322.846 844.736Q318.803 842.474 314.815 840.114Q310.828 837.754 306.899 835.298Q302.969 832.842 299.101 830.292Q295.233 827.741 291.427 825.098Q287.622 822.454 283.882 819.719Q280.142 816.984 276.469 814.159Q272.797 811.334 269.193 808.421Q265.59 805.508 262.059 802.508Q258.528 799.509 255.07 796.424C180.512 729.725 129.841 631.038 124.329 530.643C118.208 419.178 153.772 319.659 228.238 236.633C285.789 172.466 369.778 129.652 454.572 116.489C468.478 114.33 482.587 113.465 496.625 112.713Z"/>
	<path fill="#046687" transform="matrix(0.15625 0 0 -0.15625 0 160)" d="M495.357 130.217C495.388 130.213 495.418 130.208 495.449 130.206C591.584 124.947 685.296 161.807 757.235 224.603C783.151 247.225 804.699 272.943 823.26 301.844C859.536 358.328 877.771 415.376 882.22 482.348Q882.491 486.942 882.65 491.541Q882.808 496.141 882.853 500.743Q882.898 505.344 882.83 509.946Q882.762 514.547 882.58 519.146Q882.399 523.744 882.104 528.337Q881.81 532.93 881.402 537.514Q880.995 542.098 880.474 546.67Q879.954 551.243 879.322 555.801Q878.689 560.359 877.945 564.901Q877.2 569.442 876.344 573.964Q875.488 578.486 874.521 582.985Q873.554 587.484 872.476 591.958Q871.399 596.432 870.211 600.879Q869.024 605.325 867.728 609.741Q866.431 614.156 865.027 618.539Q863.622 622.921 862.11 627.268Q860.598 631.614 858.979 635.922Q857.361 640.23 855.637 644.497Q853.912 648.764 852.084 652.987Q850.255 657.21 848.323 661.387Q846.391 665.564 844.357 669.692Q842.323 673.82 840.188 677.897Q838.053 681.974 835.818 685.997Q833.583 690.02 831.25 693.986Q828.917 697.953 826.487 701.861Q824.057 705.77 821.531 709.617Q819.006 713.464 816.386 717.248Q813.767 721.031 811.055 724.75Q808.343 728.468 805.541 732.118Q802.738 735.769 799.847 739.349Q796.955 742.929 793.977 746.437Q790.998 749.945 787.934 753.379Q785.439 756.167 782.889 758.905Q780.339 761.642 777.734 764.328Q775.129 767.013 772.47 769.646Q769.812 772.279 767.101 774.857Q764.39 777.436 761.628 779.959Q758.866 782.483 756.053 784.95Q753.241 787.418 750.38 789.828Q747.518 792.238 744.609 794.591Q741.699 796.943 738.743 799.236Q735.787 801.53 732.785 803.763Q729.784 805.996 726.738 808.169Q723.692 810.341 720.603 812.452Q717.513 814.563 714.382 816.611Q711.251 818.659 708.08 820.644Q704.908 822.629 701.698 824.549Q698.487 826.47 695.238 828.325Q691.989 830.181 688.704 831.971Q685.418 833.76 682.097 835.484Q678.776 837.207 675.422 838.863Q672.067 840.519 668.679 842.108Q665.292 843.696 661.873 845.216Q658.454 846.736 655.006 848.186Q651.557 849.637 648.08 851.018Q644.603 852.399 641.098 853.71Q637.594 855.021 634.064 856.261Q630.534 857.501 626.98 858.67Q623.426 859.838 619.849 860.935Q616.272 862.032 612.674 863.057Q609.076 864.082 605.457 865.034Q601.839 865.987 598.203 866.866Q594.566 867.745 590.913 868.551Q587.259 869.357 583.59 870.089C565.507 873.636 547.479 875.1 529.123 876.299C528.802 876.328 528.483 876.363 528.162 876.387C509.581 877.788 490.352 876.679 471.849 874.758C392.478 866.517 322.685 833.975 263.347 781.03Q260.014 778.003 256.755 774.896Q253.496 771.789 250.313 768.605Q247.13 765.42 244.024 762.16Q240.919 758.9 237.893 755.566Q234.867 752.232 231.922 748.825Q228.978 745.419 226.116 741.943Q223.254 738.467 220.477 734.923Q217.7 731.379 215.009 727.769Q212.318 724.159 209.715 720.485Q207.112 716.811 204.598 713.076Q202.084 709.34 199.661 705.545Q197.238 701.75 194.907 697.898Q192.576 694.046 190.339 690.139Q188.102 686.231 185.959 682.271Q183.817 678.311 181.77 674.3Q179.724 670.29 177.775 666.231Q175.825 662.172 173.975 658.067Q172.124 653.963 170.373 649.815Q168.621 645.667 166.971 641.478Q165.32 637.289 163.771 633.061Q162.221 628.833 160.774 624.57Q159.327 620.306 157.984 616.009Q156.64 611.711 155.4 607.383Q154.16 603.054 153.025 598.697Q151.89 594.34 150.86 589.957Q149.831 585.574 148.907 581.167Q147.983 576.76 147.166 572.332Q146.348 567.905 145.638 563.458Q144.928 559.012 144.325 554.55Q143.722 550.088 143.227 545.613Q142.731 541.138 142.344 536.652Q141.957 532.166 141.678 527.672Q141.389 522.949 141.218 518.22Q141.048 513.491 140.996 508.76Q140.944 504.028 141.011 499.297Q141.078 494.565 141.263 489.837Q141.449 485.109 141.753 480.387Q142.058 475.665 142.48 470.952Q142.903 466.239 143.444 461.538Q143.985 456.837 144.644 452.151Q145.303 447.466 146.079 442.798Q146.855 438.13 147.748 433.483Q148.641 428.836 149.651 424.213Q150.66 419.59 151.785 414.994Q152.91 410.398 154.151 405.832Q155.391 401.265 156.745 396.731Q158.1 392.198 159.568 387.699Q161.035 383.201 162.616 378.74Q164.196 374.28 165.888 369.861Q167.58 365.442 169.382 361.067Q171.184 356.691 173.095 352.363Q175.007 348.034 177.026 343.755Q179.046 339.476 181.172 335.248Q183.298 331.021 185.53 326.849Q187.762 322.676 190.097 318.561Q192.433 314.446 194.871 310.39Q197.31 306.335 199.849 302.342Q202.388 298.35 205.027 294.422Q207.666 290.494 210.402 286.634Q213.139 282.773 215.972 278.983Q218.804 275.193 221.731 271.474Q224.658 267.756 227.677 264.113Q230.696 260.469 233.806 256.903Q236.916 253.336 240.114 249.849Q243.164 246.514 246.295 243.254Q249.425 239.995 252.635 236.813Q255.844 233.631 259.131 230.529Q262.417 227.427 265.779 224.406Q269.14 221.385 272.575 218.447Q276.009 215.51 279.514 212.657Q283.02 209.804 286.594 207.038Q290.168 204.272 293.809 201.594Q297.449 198.916 301.154 196.329Q304.86 193.741 308.627 191.244Q312.394 188.748 316.222 186.345Q320.049 183.941 323.934 181.632Q327.819 179.323 331.76 177.11Q335.7 174.897 339.694 172.781Q343.687 170.665 347.731 168.648Q351.775 166.63 355.868 164.712Q359.96 162.794 364.098 160.977Q368.236 159.159 372.417 157.444Q376.598 155.728 380.82 154.116Q385.042 152.503 389.302 150.995Q393.562 149.486 397.858 148.082Q402.154 146.678 406.483 145.38Q410.812 144.081 415.171 142.889Q419.531 141.697 423.918 140.612Q428.305 139.527 432.718 138.55Q437.13 137.573 441.565 136.704Q446 135.835 450.455 135.075Q454.91 134.315 459.383 133.664Q463.855 133.013 468.342 132.472Q472.829 131.931 477.328 131.5Q481.826 131.069 486.334 130.748Q490.842 130.427 495.357 130.217Z"/>
	<path fill="#FDFDFE" transform="matrix(0.15625 0 0 -0.15625 0 160)" d="M506.762 134.731C518.108 134.377 529.644 135.182 540.948 136.088Q544.697 136.401 548.439 136.793Q552.181 137.184 555.914 137.652Q559.647 138.121 563.37 138.667Q567.092 139.213 570.802 139.837Q574.513 140.46 578.209 141.16Q581.906 141.86 585.587 142.636Q589.269 143.413 592.933 144.266Q596.598 145.118 600.243 146.047Q603.889 146.976 607.515 147.98Q611.141 148.984 614.745 150.063Q618.35 151.142 621.931 152.296Q625.512 153.449 629.068 154.677Q632.625 155.905 636.155 157.206Q639.685 158.507 643.187 159.881Q646.69 161.255 650.163 162.702Q653.636 164.149 657.078 165.667Q660.521 167.185 663.931 168.775Q667.341 170.364 670.717 172.024Q674.094 173.683 677.435 175.413Q680.776 177.142 684.081 178.941Q687.385 180.739 690.652 182.606Q693.919 184.473 697.146 186.407Q700.373 188.341 703.56 190.341Q706.746 192.342 709.89 194.408Q713.034 196.474 716.135 198.605Q719.236 200.736 722.291 202.931Q725.347 205.126 728.357 207.384Q731.366 209.641 734.328 211.961Q737.29 214.281 740.204 216.662Q743.117 219.042 745.98 221.483Q748.844 223.924 751.656 226.423Q754.467 228.923 757.227 231.48C829.926 298.335 873.353 387.841 877.377 486.926C881.279 583.009 849.2 679.961 783.397 751.019C727.625 811.245 658.906 852.11 577.453 866.355C557.571 869.832 537.607 871.219 517.469 871.994C418.989 873.626 330.156 838.032 258.582 770.675Q255.371 767.605 252.235 764.458Q249.099 761.311 246.04 758.089Q242.982 754.867 240.002 751.572Q237.022 748.277 234.122 744.91Q231.223 741.544 228.406 738.109Q225.589 734.673 222.856 731.171Q220.123 727.668 217.475 724.1Q214.828 720.533 212.268 716.902Q209.707 713.271 207.236 709.58Q204.764 705.888 202.382 702.138Q200 698.387 197.71 694.58Q195.42 690.774 193.223 686.912Q191.025 683.051 188.922 679.138Q186.818 675.225 184.81 671.262Q182.802 667.299 180.891 663.288Q178.979 659.278 177.166 655.222Q175.352 651.167 173.636 647.068Q171.921 642.97 170.306 638.832Q168.69 634.693 167.175 630.517Q165.66 626.34 164.247 622.128Q162.834 617.917 161.523 613.672Q160.211 609.427 159.004 605.151Q157.796 600.876 156.691 596.573Q155.587 592.269 154.588 587.941Q153.588 583.612 152.694 579.26Q151.799 574.909 151.01 570.536Q150.221 566.164 149.538 561.775Q148.855 557.385 148.278 552.979Q147.702 548.574 147.232 544.156Q146.762 539.739 146.4 535.311Q146.037 530.883 145.781 526.448Q145.526 522.012 145.378 517.572Q144.808 499.599 145.878 481.649Q146.948 463.699 149.649 445.921C161.063 374.338 194.651 304.024 244.549 251.275C315.306 176.474 404.058 137.561 506.762 134.731Z"/>
	<path fill="#CAA9DF" transform="matrix(0.15625 0 0 -0.15625 0 160)" d="M539.068 529.487L732.555 529.944L732.629 716.635C668.274 715.822 603.826 716.52 539.458 716.501L539.068 529.487Z"/>
	<path fill="#FDFDFE" transform="matrix(0.15625 0 0 -0.15625 0 160)" d="M558.902 549.009L713.021 549.252L713.323 629.237C713.396 651.747 713.713 674.297 713.258 696.802C708.836 697.626 703.55 697.086 699.038 697.083L668.987 697.044L558.944 697.036L558.902 549.009Z"/>
	<path fill="#7CC388" transform="matrix(0.15625 0 0 -0.15625 0 160)" d="M292.05 528.552L484.098 528.936C484.636 549.497 484.168 570.171 484.22 590.747L484.474 717.007L292.013 716.844L292.05 528.552Z"/>
	<path fill="#C0E1BC" transform="matrix(0.15625 0 0 -0.15625 0 160)" d="M312.869 549.13L463.114 549.45C463.449 573.623 463.221 597.828 463.229 622.004C463.237 646.658 463.476 671.327 463.178 695.979C461.492 697.282 326.335 696.516 312.991 696.51L312.869 549.13Z"/>
	<path fill="#7CC388" transform="matrix(0.15625 0 0 -0.15625 0 160)" d="M292.03 293.095C324.148 293.775 356.343 293.288 388.468 293.253L484.485 293.362L484.286 481.438C477.266 481.777 470.068 481.45 463.033 481.435L422.14 481.401L291.963 481.458L292.03 293.095Z"/>
	<path fill="#C0E1BC" transform="matrix(0.15625 0 0 -0.15625 0 160)" d="M312.883 314.536C362.963 314.412 413.201 313.926 463.265 314.83L463.439 460.057C445.621 460.459 427.732 460.152 409.907 460.115L312.892 459.983Q312.557 420.547 312.801 381.11C312.829 358.926 312.575 336.717 312.883 314.536Z"/>
	<path fill="#85CED2" transform="matrix(0.15625 0 0 -0.15625 0 160)" d="M539.485 293.618L732.218 293.479L732.406 418.026L732.49 459.259C732.509 466.599 732.902 474.198 732.322 481.506L539.148 481.547C540.55 418.96 538.962 356.227 539.485 293.618Z"/>
	<path fill="#C9E4F5" transform="matrix(0.15625 0 0 -0.15625 0 160)" d="M558.998 314.581L712.709 314.689L712.992 461.611L558.979 461.502L558.998 314.581Z"/>
</svg>
